<svg xmlns="http://www.w3.org/2000/svg" viewBox="0 0 18 15" class="SocialLinks__StyledLogo-sc-1ar9ej1-3 frCpD"><path d="M18 1.77515C17.3254 2.05917 16.6154 2.27219 15.8698 2.3432C16.6509 1.88166 17.2189 1.1716 17.503 0.284023C16.7929 0.710059 16.0118 1.02959 15.1598 1.1716C14.4852 0.461538 13.5266 0 12.4615 0C10.4024 0 8.76923 1.66864 8.76923 3.69231C8.76923 3.97633 8.80474 4.26035 8.87574 4.54438C5.78698 4.40237 3.08876 2.91124 1.2426 0.674557C0.923077 1.2071 0.745562 1.84615 0.745562 2.52071C0.745562 3.79882 1.38462 4.93491 2.3787 5.60947C1.77515 5.57396 1.2071 5.43195 0.710059 5.14793V5.18343C0.710059 6.95858 1.98817 8.48521 3.69231 8.80473C3.37278 8.87574 3.05326 8.94674 2.73373 8.94674C2.48521 8.94674 2.27219 8.91124 2.02367 8.87574C2.48521 10.3314 3.86982 11.432 5.46746 11.432C4.18935 12.426 2.59172 13.0296 0.887574 13.0296C0.60355 13.0296 0.284024 13.0296 0 12.9941C1.63314 14.0592 3.5858 14.6627 5.68048 14.6627C12.497 14.6627 16.1893 9.01775 16.1893 4.15385C16.1893 3.97633 16.1893 3.83432 16.1893 3.69231C16.8639 3.15976 17.503 2.52071 18 1.77515Z" fill="currentColor"></path></svg>