<svg xmlns="http://www.w3.org/2000/svg" viewBox="0 0 16 16" class="SocialLinks__StyledLogo-sc-1ar9ej1-3 frCpD"><path d="M11.37 0L4.63 0.03C2.07 0.03 0 2.1 0 4.67V11.35C0 13.93 2.07 16 4.63 16H11.36C13.92 16 15.99 13.93 15.99 11.36V4.64C16 2.07 13.93 0 11.37 0ZM8 10.71C6.49 10.71 5.28 9.5 5.28 7.99C5.25 6.47 6.49 5.26 8 5.26C9.51 5.26 10.72 6.47 10.72 7.98C10.72 9.5 9.51 10.71 8 10.71ZM12.29 4.67C11.76 4.67 11.33 4.24 11.33 3.71C11.33 3.18 11.76 2.75 12.29 2.75C12.82 2.75 13.25 3.18 13.25 3.71C13.25 4.24 12.82 4.67 12.29 4.67Z" fill="currentColor"></path></svg>