<svg xmlns="http://www.w3.org/2000/svg" viewBox="0 0 14 16" class="SocialLinks__StyledLogo-sc-1ar9ej1-3 frCpD"><path d="M13.2486 3.79321C12.3862 3.79321 11.5906 3.50635 10.9516 3.02242C10.2188 2.46766 9.69223 1.6539 9.50629 0.715969C9.46025 0.484227 9.43546 0.245077 9.4331 0H6.96959V6.75903L6.96664 10.4613C6.96664 11.4511 6.32471 12.2903 5.43487 12.5855C5.17663 12.6711 4.89772 12.7117 4.60731 12.6957C4.23662 12.6753 3.88924 12.5629 3.58731 12.3816C2.9448 11.9957 2.50918 11.2958 2.49737 10.495C2.47878 9.24358 3.48638 8.22327 4.73186 8.22327C4.97771 8.22327 5.21382 8.26357 5.43487 8.33677V6.48935V5.82525C5.20172 5.79057 4.96442 5.7725 4.72448 5.7725C3.36124 5.7725 2.08625 6.34148 1.17486 7.36653C0.486011 8.14118 0.0728191 9.12949 0.0090694 10.1658C-0.0744545 11.5272 0.421671 12.8213 1.38382 13.7762C1.52519 13.9163 1.67364 14.0464 1.82889 14.1665C2.65379 14.8039 3.66228 15.1494 4.72448 15.1494C4.96442 15.1494 5.20172 15.1316 5.43487 15.097C6.42713 14.9494 7.34264 14.4933 8.06514 13.7762C8.95291 12.8951 9.44343 11.7255 9.44874 10.4805L9.43605 4.95192C9.85957 5.27997 10.3226 5.55142 10.8197 5.76212C11.5926 6.08958 12.4122 6.25554 13.2557 6.25524V4.4591V3.79262C13.2563 3.79321 13.2492 3.79321 13.2486 3.79321Z" fill="currentColor"></path></svg>