<svg xmlns="http://www.w3.org/2000/svg" viewBox="0 0 16 14" class="BorderButton__StyledIcon-sc-lhu2v6-3 eBskyA"><path fill-rule="evenodd" clip-rule="evenodd" d="M13.678 2.894H2.322l5.218 4.93a.667.667 0 00.916 0l5.222-4.93zM1.364 10.757l3.801-3.802-3.801-3.59v7.392zm4.529-3.115L2.07 11.466h11.266L9.8 7.93l-.658.62a1.667 1.667 0 01-2.288 0l-.961-.908zm8.74 3.657c0 .015-.001.03-.005.044l-4.1-4.1 4.106-3.876V11.3zM.364 3.06c0-.645.523-1.167 1.167-1.167h12.937c.644 0 1.167.522 1.167 1.167v8.238c0 .644-.523 1.167-1.167 1.167H1.53a1.167 1.167 0 01-1.166-1.167V3.06z" fill="currentColor"></path></svg>